<svg width="1450" height="1099" viewBox="0 0 1450 1099" fill="none" xmlns="http://www.w3.org/2000/svg">
<g filter="url(#filter0_df_18_964)">
<path d="M1196.15 590.064C1199.04 577.729 1203.33 565.764 1208.94 554.403L1210.19 551.886C1217.02 538.047 1225.97 525.358 1236.72 514.278C1247.18 503.488 1259.22 494.351 1272.42 487.177L1281.33 482.337C1289.08 478.128 1297.32 474.884 1305.85 472.676L1309.92 471.625C1317.93 469.554 1326.2 468.724 1334.46 469.165L1340.75 469.5C1352.96 470.151 1364.69 474.487 1374.39 481.937C1382.97 488.525 1389.63 497.292 1393.68 507.326L1401 525.5L1414 571.5C1418.62 594.255 1427.88 615.811 1441.22 634.819L1444.5 639.5V785.5L1411.3 792.01C1382.8 797.598 1353.41 796.676 1325.32 789.314C1305.56 784.137 1286.76 775.857 1269.61 764.781L1258.26 757.455C1240.95 746.276 1226.1 731.486 1214.82 714.241C1208.65 704.816 1203.56 694.652 1199.72 684.063C1193.95 668.143 1191 651.339 1191 634.405V631.062C1191 618.396 1192.46 605.773 1195.35 593.441L1196.15 590.064Z" fill="url(#paint0_linear_18_964)" fill-opacity="0.75"/>
<path d="M1196.63 590.179C1199.52 577.88 1203.8 565.951 1209.39 554.624L1210.63 552.107C1217.45 538.315 1226.37 525.669 1237.07 514.626C1247.5 503.873 1259.5 494.766 1272.66 487.616L1281.57 482.776C1289.29 478.587 1297.48 475.358 1305.98 473.16L1310.04 472.109C1318 470.051 1326.23 469.226 1334.44 469.664L1340.72 469.999C1352.83 470.645 1364.47 474.945 1374.09 482.333C1382.6 488.867 1389.2 497.562 1393.21 507.513L1400.53 525.662L1413.51 571.618C1418.15 594.433 1427.44 616.047 1440.81 635.106L1444 639.658V785.089L1411.2 791.519C1382.78 797.092 1353.46 796.173 1325.44 788.83C1305.74 783.667 1286.99 775.408 1269.88 764.361L1258.53 757.035C1241.28 745.894 1226.48 731.154 1215.24 713.967C1209.09 704.575 1204.02 694.445 1200.19 683.892C1194.44 668.027 1191.5 651.281 1191.5 634.405V631.062C1191.5 618.435 1192.96 605.849 1195.84 593.555L1196.63 590.179Z" stroke="url(#paint1_linear_18_964)" stroke-opacity="0.75" style="mix-blend-mode:darken"/>
<path d="M828.5 5H993L998.934 20.7243C1001.64 27.883 1003.48 35.3362 1004.43 42.9284L1004.86 46.4012C1005.62 52.4414 1005.58 58.5541 1004.76 64.5855C1003.6 73.1222 1000.87 81.3714 996.719 88.9206L993.989 93.883C989.026 102.908 982.707 111.117 975.253 118.224L974.372 119.064C968.149 124.997 961.201 130.121 953.692 134.311C946.92 138.091 939.738 141.087 932.286 143.24L921 146.5C904.91 149.455 888.342 148.436 872.736 143.531L869.598 142.545C864.215 140.853 858.666 139.742 853.047 139.232L842.612 138.283C833.422 137.447 824.195 139.428 816.158 143.962C811.424 146.632 807.208 150.13 803.709 154.288L774.5 189L762.646 202.07C757.588 207.646 751.589 212.291 744.923 215.79L741.605 217.533C737.235 219.827 732.5 221.347 727.611 222.026C720.645 222.994 713.547 222.228 706.947 219.796L704.296 218.819C700.115 217.279 696.14 215.227 692.463 212.711L679 203.5L673.575 199.005C665.595 192.393 658.923 184.348 653.903 175.283C647.08 162.963 643.5 149.112 643.5 135.029V125.577C643.5 119.215 644.263 112.877 645.772 106.697L646.893 102.104C651.425 83.5442 663.476 67.7079 680.157 58.3931C688.3 53.8453 697.284 51.0024 706.562 50.0376L740.6 46.4976C750.177 45.5016 759.631 43.5612 768.826 40.7047L775.408 38.6595C795.771 32.3332 814.092 20.7184 828.5 5Z" fill="url(#paint2_linear_18_964)" fill-opacity="0.75"/>
<path d="M775.557 39.137C795.934 32.8062 814.274 21.2013 828.72 5.5H992.654L998.466 20.9009C1001.15 28.0226 1002.99 35.4373 1003.93 42.9904L1004.37 46.4632C1005.12 52.4604 1005.08 58.5296 1004.27 64.5179C1003.11 72.9938 1000.4 81.1843 996.281 88.6797L993.551 93.6421C988.612 102.622 982.325 110.79 974.908 117.862L974.027 118.702C967.835 124.606 960.92 129.705 953.449 133.875C946.709 137.636 939.562 140.617 932.147 142.759L920.885 146.013C904.883 148.948 888.407 147.932 872.886 143.054L869.748 142.068C864.331 140.366 858.747 139.248 853.092 138.734L842.657 137.785C833.366 136.94 824.038 138.943 815.912 143.527C811.127 146.226 806.864 149.762 803.326 153.966L774.123 188.671L762.276 201.734C757.257 207.267 751.305 211.875 744.691 215.348L741.372 217.09C737.053 219.357 732.374 220.86 727.543 221.531C720.657 222.487 713.643 221.73 707.12 219.327L704.469 218.35C700.326 216.824 696.388 214.792 692.745 212.299L679.301 203.1L673.894 198.62C665.962 192.048 659.33 184.051 654.34 175.04C647.558 162.795 644 149.027 644 135.029V125.577C644 119.255 644.758 112.956 646.257 106.815L647.379 102.222C651.878 83.7978 663.842 68.0767 680.4 58.8296C688.485 54.3149 697.404 51.4927 706.614 50.5349L740.652 46.9949C750.261 45.9955 759.748 44.0485 768.974 41.1822L775.557 39.137Z" stroke="url(#paint3_linear_18_964)" stroke-opacity="0.75" style="mix-blend-mode:darken"/>
<path d="M704.916 948.749C648.741 979.547 578.251 955.253 552.98 896.383L550.785 891.27L550.72 874.463C550.69 866.812 551.566 859.184 553.33 851.739L554.136 848.333C555.539 842.41 557.707 836.694 560.585 831.331C564.659 823.739 570.096 816.962 576.624 811.34L580.915 807.644C588.719 800.922 597.508 795.438 606.976 791.384L608.094 790.905C615.999 787.52 624.299 785.147 632.798 783.844C640.465 782.669 648.241 782.372 655.975 782.958L667.689 783.847C683.797 786.7 698.965 793.444 711.873 803.493L714.469 805.514C718.922 808.98 723.733 811.959 728.819 814.401L738.265 818.936C746.584 822.93 755.921 824.298 765.036 822.858C770.404 822.011 775.577 820.207 780.309 817.533L819.805 795.215L835.478 787.112C842.166 783.654 849.41 781.398 856.879 780.448L860.597 779.976C865.493 779.353 870.46 779.583 875.278 780.655C882.144 782.182 888.526 785.38 893.86 789.964L896.004 791.806C899.383 794.71 902.39 798.021 904.956 801.664L914.352 814.999L917.865 821.107C923.031 830.089 926.471 839.959 928.008 850.207C930.096 864.134 928.61 878.363 923.689 891.558L920.387 900.415C918.164 906.375 915.234 912.048 911.661 917.311L909.005 921.222C898.274 937.028 881.449 947.656 862.565 950.555C853.346 951.971 843.935 951.495 834.905 949.157L801.775 940.581C792.454 938.168 782.918 936.682 773.305 936.146L766.422 935.762C745.133 934.575 723.909 939.056 704.916 948.749Z" fill="url(#paint4_linear_18_964)" fill-opacity="0.75"/>
<path d="M704.689 948.304L704.682 948.307L704.676 948.31C648.759 978.967 578.594 954.784 553.44 896.186L551.285 891.166L551.22 874.461C551.19 866.849 552.062 859.261 553.816 851.854L554.623 848.448C556.016 842.567 558.168 836.893 561.026 831.567C565.07 824.029 570.469 817.301 576.95 811.718L581.241 808.023C589.007 801.335 597.752 795.878 607.173 791.843L608.291 791.364C616.157 787.996 624.417 785.635 632.874 784.338C640.503 783.169 648.241 782.873 655.937 783.457L667.626 784.344C683.645 787.185 698.728 793.894 711.566 803.887L714.162 805.908C718.643 809.396 723.484 812.395 728.603 814.852L738.049 819.387C746.459 823.425 755.899 824.808 765.114 823.352C770.541 822.495 775.771 820.672 780.555 817.968L820.035 795.66L820.051 795.651L835.708 787.556C842.344 784.125 849.531 781.887 856.942 780.944L860.66 780.472C865.499 779.856 870.408 780.083 875.169 781.143C881.955 782.652 888.263 785.813 893.535 790.343L895.678 792.185C899.026 795.063 902.005 798.343 904.548 801.952L913.93 815.268L917.431 821.356C922.566 830.284 925.986 840.095 927.513 850.281C929.589 864.124 928.112 878.268 923.221 891.383L919.918 900.24C917.709 906.163 914.798 911.8 911.247 917.03L908.592 920.942C897.938 936.633 881.236 947.182 862.49 950.061C853.337 951.466 843.994 950.994 835.03 948.673L801.9 940.097C792.548 937.675 782.979 936.185 773.333 935.647L766.45 935.263C745.072 934.07 723.76 938.57 704.689 948.304Z" stroke="url(#paint5_linear_18_964)" stroke-opacity="0.75" style="mix-blend-mode:darken"/>
<path d="M5.00011 236.5L5.00011 653L34.9313 676.5L48.3469 684.361C60.7951 691.655 74.9623 695.5 89.3901 695.5H90.9093C104.496 695.5 117.832 691.841 129.516 684.907C138.851 679.367 146.884 671.884 153.07 662.964L162.27 649.699C172.352 635.162 178.387 618.204 179.756 600.565C181.325 580.337 176.689 560.111 166.466 542.586L162.225 535.316C154.581 522.212 144.646 510.587 132.893 500.995L122.029 492.13C112.198 484.106 103.861 474.409 97.4044 463.485L91.8975 454.168C86.5923 445.192 83.5583 435.056 83.0592 424.642C82.4758 412.467 85.3781 400.379 91.4254 389.796L97.1515 379.775C100.487 373.939 104.381 368.441 108.781 363.359L125.164 344.433C129.159 339.818 132.798 334.905 136.049 329.738L143.086 318.55C148.075 310.618 151.215 301.666 152.273 292.356C152.866 287.139 152.798 281.869 152.072 276.67L151.81 274.795C151.05 269.348 149.71 263.998 147.815 258.835L147.431 257.788C144.941 251.005 141.624 244.556 137.554 238.586L130.712 228.549L126.199 223.082C119.621 215.114 111.61 208.448 102.579 203.428C90.2758 196.589 76.4321 193 62.3559 193H47.2282C44.6892 193 42.1553 193.229 39.6574 193.684C19.5862 197.342 5.00009 214.826 5.00011 235.228L5.00011 236.5Z" fill="url(#paint6_linear_18_964)" fill-opacity="0.75"/>
<path d="M5.50011 236.5L5.50011 652.757L35.2135 676.086L48.5997 683.93C60.9712 691.179 75.0512 695 89.3901 695H90.9093C104.406 695 117.654 691.365 129.261 684.477C138.534 678.974 146.514 671.54 152.659 662.679L161.859 649.414C171.891 634.949 177.895 618.077 179.257 600.527C180.819 580.4 176.206 560.275 166.034 542.838L161.793 535.568C154.179 522.515 144.283 510.937 132.576 501.383L121.713 492.517C111.836 484.457 103.461 474.714 96.9739 463.739L91.4671 454.422C86.1204 445.376 83.0628 435.162 82.5598 424.666C81.9718 412.396 84.8968 400.213 90.9912 389.548L96.7174 379.527C100.068 373.663 103.982 368.138 108.403 363.031L124.786 344.106C128.765 339.51 132.388 334.617 135.625 329.472L142.663 318.283C147.612 310.416 150.727 301.535 151.776 292.299C152.364 287.125 152.297 281.897 151.577 276.739L151.315 274.864C150.559 269.452 149.229 264.137 147.346 259.007L146.961 257.96C144.486 251.216 141.187 244.804 137.141 238.868L130.311 228.85L125.813 223.401C119.275 215.481 111.312 208.855 102.336 203.865C90.1072 197.067 76.3471 193.5 62.3559 193.5H47.2282C44.7192 193.5 42.2154 193.726 39.7471 194.176C19.9134 197.79 5.50009 215.068 5.50011 235.228L5.50011 236.5Z" stroke="url(#paint7_linear_18_964)" stroke-opacity="0.75" style="mix-blend-mode:darken"/>
</g>
<defs>
<filter id="filter0_df_18_964" x="0.00012207" y="0" width="1449.5" height="970.149" filterUnits="userSpaceOnUse" color-interpolation-filters="sRGB">
<feFlood flood-opacity="0" result="BackgroundImageFix"/>
<feColorMatrix in="SourceAlpha" type="matrix" values="0 0 0 0 0 0 0 0 0 0 0 0 0 0 0 0 0 0 127 0" result="hardAlpha"/>
<feOffset dy="4"/>
<feGaussianBlur stdDeviation="2"/>
<feComposite in2="hardAlpha" operator="out"/>
<feColorMatrix type="matrix" values="0 0 0 0 0 0 0 0 0 0 0 0 0 0 0 0 0 0 0.25 0"/>
<feBlend mode="normal" in2="BackgroundImageFix" result="effect1_dropShadow_18_964"/>
<feBlend mode="normal" in="SourceGraphic" in2="effect1_dropShadow_18_964" result="shape"/>
<feGaussianBlur stdDeviation="2.5" result="effect2_foregroundBlur_18_964"/>
</filter>
<linearGradient id="paint0_linear_18_964" x1="1158" y1="469" x2="1480" y2="759" gradientUnits="userSpaceOnUse">
<stop offset="0.151042" stop-color="#74F9FD" stop-opacity="0.7"/>
<stop offset="0.558523" stop-color="#1837DF" stop-opacity="0.5"/>
<stop offset="0.942708" stop-color="#E446F7" stop-opacity="0.7"/>
</linearGradient>
<linearGradient id="paint1_linear_18_964" x1="1317.75" y1="468.5" x2="1317.75" y2="800.5" gradientUnits="userSpaceOnUse">
<stop stop-color="white"/>
<stop offset="1" stop-color="white" stop-opacity="0"/>
</linearGradient>
<linearGradient id="paint2_linear_18_964" x1="759.5" y1="5" x2="906.5" y2="206" gradientUnits="userSpaceOnUse">
<stop stop-color="#74F9FD" stop-opacity="0.7"/>
<stop offset="0.450342" stop-color="#1B3EF3" stop-opacity="0.5"/>
<stop offset="1" stop-color="#E444F7" stop-opacity="0.7"/>
</linearGradient>
<linearGradient id="paint3_linear_18_964" x1="824.75" y1="5" x2="824.75" y2="223.5" gradientUnits="userSpaceOnUse">
<stop stop-color="white"/>
<stop offset="1" stop-color="white" stop-opacity="0"/>
</linearGradient>
<linearGradient id="paint4_linear_18_964" x1="731" y1="1011" x2="669" y2="750.5" gradientUnits="userSpaceOnUse">
<stop stop-color="#64D7F8" stop-opacity="0.7"/>
<stop offset="0.46875" stop-color="#2038E0" stop-opacity="0.5"/>
<stop offset="1" stop-color="#E246F7" stop-opacity="0.7"/>
</linearGradient>
<linearGradient id="paint5_linear_18_964" x1="676.825" y1="1034.81" x2="784.777" y2="745.332" gradientUnits="userSpaceOnUse">
<stop stop-color="white"/>
<stop offset="1" stop-color="white" stop-opacity="0"/>
</linearGradient>
<linearGradient id="paint6_linear_18_964" x1="-53.5" y1="400" x2="182" y2="444" gradientUnits="userSpaceOnUse">
<stop stop-color="#70F2FD" stop-opacity="0.7"/>
<stop offset="0.467869" stop-color="#1B38E0" stop-opacity="0.5"/>
<stop offset="1" stop-color="#DB46F6" stop-opacity="0.7"/>
</linearGradient>
<linearGradient id="paint7_linear_18_964" x1="5" y1="444.25" x2="182.166" y2="444.25" gradientUnits="userSpaceOnUse">
<stop stop-color="white"/>
<stop offset="1" stop-color="white" stop-opacity="0"/>
</linearGradient>
</defs>
</svg>
